<?xml version="1.0" standalone="no"?>
<!DOCTYPE svg PUBLIC "-//W3C//DTD SVG 20010904//EN"
 "http://www.w3.org/TR/2001/REC-SVG-20010904/DTD/svg10.dtd">
<svg version="1.0" xmlns="http://www.w3.org/2000/svg"
 width="512.000000pt" height="512.000000pt" viewBox="0 0 512.000000 512.000000"
 preserveAspectRatio="xMidYMid meet">

<g transform="translate(0.000000,512.000000) scale(0.100000,-0.100000)"
fill="#000000" stroke="none">
<path d="M0 2560 l0 -2560 2560 0 2560 0 0 2560 0 2560 -2560 0 -2560 0 0
-2560z m4820 1810 l0 -450 -2260 0 -2260 0 0 450 0 450 2260 0 2260 0 0 -450z
m0 -2410 l0 -1660 -2260 0 -2260 0 0 1660 0 1660 2260 0 2260 0 0 -1660z"/>
<path d="M600 4370 l0 -150 150 0 150 0 0 150 0 150 -150 0 -150 0 0 -150z"/>
<path d="M1200 4370 l0 -150 150 0 150 0 0 150 0 150 -150 0 -150 0 0 -150z"/>
<path d="M1800 4370 l0 -150 150 0 150 0 0 150 0 150 -150 0 -150 0 0 -150z"/>
<path d="M910 2570 l0 -750 150 0 150 0 0 300 0 300 150 0 150 0 0 -300 0
-300 150 0 150 0 0 750 0 750 -450 0 -450 0 0 -750z m600 300 l0 -150 -150 0
-150 0 0 150 0 150 150 0 150 0 0 -150z"/>
<path d="M2110 2570 l0 -750 450 0 450 0 0 750 0 750 -450 0 -450 0 0 -750z
m600 300 l0 -150 -150 0 -150 0 0 150 0 150 150 0 150 0 0 -150z m0 -600 l0
-150 -150 0 -150 0 0 150 0 150 150 0 150 0 0 -150z"/>
<path d="M3310 2570 l0 -750 450 0 450 0 0 150 0 150 -300 0 -300 0 0 450 0
450 300 0 300 0 0 150 0 150 -450 0 -450 0 0 -750z"/>
<path d="M910 1370 l0 -150 1650 0 1650 0 0 150 0 150 -1650 0 -1650 0 0 -150z"/>
<path d="M910 770 l0 -150 1650 0 1650 0 0 150 0 150 -1650 0 -1650 0 0 -150z"/>
</g>
</svg>
