<svg width="683" height="683" viewBox="0 0 683 683" fill="none" xmlns="http://www.w3.org/2000/svg">
<g clip-path="url(#clip0_4_6)">
<rect width="683" height="683" fill="#D9D9D9"/>
<path d="M-9.53674e-06 60V120H341.333H682.667V60V-6.25849e-06H341.333H-9.53674e-06V60ZM120 60V80H100H80V60V40H100H120V60ZM200 60V80H180H160V60V40H180H200V60ZM280 60V80H260H240V60V40H260H280V60Z" fill="black"/>
<path d="M-9.53674e-06 421.333V682.667H341.333H682.667V421.333V160H341.333H-9.53674e-06V421.333ZM241.333 340V440H221.333H201.333V400V360H181.333H161.333V400V440H141.333H121.333V340V240H181.333H241.333V340ZM401.333 340V440H341.333H281.333V340V240H341.333H401.333V340ZM561.333 260V280H521.333H481.333V340V400H521.333H561.333V420V440H501.333H441.333V340V240H501.333H561.333V260ZM561.333 500V520H341.333H121.333V500V480H341.333H561.333V500ZM561.333 580V600H341.333H121.333V580V560H341.333H561.333V580Z" fill="black"/>
<path d="M161.333 300V320H181.333H201.333V300V280H181.333H161.333V300Z" fill="black"/>
<path d="M321.333 300V320H341.333H361.333V300V280H341.333H321.333V300Z" fill="black"/>
<path d="M321.333 380V400H341.333H361.333V380V360H341.333H321.333V380Z" fill="black"/>
</g>
<defs>
<clipPath id="clip0_4_6">
<rect width="682.667" height="682.667" fill="white"/>
</clipPath>
</defs>
</svg>
